<svg width="75" height="100" viewBox="0 0 75 100" fill="none" xmlns="http://www.w3.org/2000/svg">
<g clip-path="url(#clip0_5695_8062)">
<path d="M9.42969 53.0297H17.835C21.7904 53.0297 25.1691 53.9362 27.9708 55.7491C30.855 57.6444 32.7915 60.3226 33.7804 63.7836V6.42969H43.669V63.7836C44.6578 60.3226 46.5531 57.6444 49.3549 55.7491C52.2391 53.9362 55.6589 53.0297 59.6144 53.0297H68.0197V63.66H60.7268C55.6177 63.66 51.4563 65.0197 48.2424 67.739C45.0287 70.4584 43.4217 74.249 43.4217 79.111V80.5938H34.0276V79.111C34.0276 74.249 32.4207 70.4584 29.2069 67.739C25.993 65.0197 21.8316 63.66 16.7225 63.66H9.42969V53.0297Z" fill="black"/>
</g>
<defs>
<clipPath id="clip0_5695_8062">
<rect width="75" height="112" fill="white" transform="translate(0 -12)"/>
</clipPath>
</defs>
</svg>
